<!--
  Aerie · 云栖 — Icon Sprite (Phase 7)
  Generated by build-icon-sprite.js
  Source: assets/icons/*.svg
  Style: 24x24 viewBox, stroke-width 2, currentColor, round caps.
  Generated: 2026-07-16T13:35:17.788Z
-->
<svg xmlns="http://www.w3.org/2000/svg" style="position:absolute; width:0; height:0; overflow:hidden;" aria-hidden="true">
  <defs>
    <symbol id="icon-ui-close" viewBox="0 0 24 24" fill="none" stroke="currentColor" stroke-width="2" stroke-linecap="round" stroke-linejoin="round">
<path d="M18 6 6 18"/>
  <path d="m6 6 12 12"/>
</symbol>
    <symbol id="icon-ui-attach" viewBox="0 0 24 24" fill="none" stroke="currentColor" stroke-width="2" stroke-linecap="round" stroke-linejoin="round">
<path d="m21.44 11.05-9.19 9.19a6 6 0 0 1-8.49-8.49l8.57-8.57A4 4 0 1 1 17.93 8.8l-8.57 8.57a2 2 0 0 1-2.83-2.83l8.49-8.48"/>
</symbol>
    <symbol id="icon-ui-copy" viewBox="0 0 24 24" fill="none" stroke="currentColor" stroke-width="2" stroke-linecap="round" stroke-linejoin="round">
<rect width="14" height="14" x="8" y="8" rx="2" ry="2"/>
  <path d="M4 16c-1.1 0-2-.9-2-2V4c0-1.1.9-2 2-2h10c1.1 0 2 .9 2 2"/>
</symbol>
    <symbol id="icon-ui-warning" viewBox="0 0 24 24" fill="none" stroke="currentColor" stroke-width="2" stroke-linecap="round" stroke-linejoin="round">
<path d="m21.73 18-8-14a2 2 0 0 0-3.48 0l-8 14A2 2 0 0 0 4 21h16a2 2 0 0 0 1.73-3Z"/>
  <path d="M12 9v4"/>
  <path d="M12 17h.01"/>
</symbol>
    <symbol id="icon-mood-neutral" viewBox="0 0 24 24" fill="none" stroke="currentColor" stroke-width="2" stroke-linecap="round" stroke-linejoin="round">
<circle cx="12" cy="12" r="10"/>
  <line x1="8" x2="16" y1="15" y2="15"/>
  <line x1="9" x2="9.01" y1="9" y2="9"/>
  <line x1="15" x2="15.01" y1="9" y2="9"/>
</symbol>
    <symbol id="icon-mood-joy" viewBox="0 0 24 24" fill="none" stroke="currentColor" stroke-width="2" stroke-linecap="round" stroke-linejoin="round">
<circle cx="12" cy="12" r="10"/>
  <path d="M8 14s1.5 2 4 2 4-2 4-2"/>
  <line x1="9" x2="9.01" y1="9" y2="9"/>
  <line x1="15" x2="15.01" y1="9" y2="9"/>
</symbol>
    <symbol id="icon-mood-sad" viewBox="0 0 24 24" fill="none" stroke="currentColor" stroke-width="2" stroke-linecap="round" stroke-linejoin="round">
<circle cx="12" cy="12" r="10"/>
  <path d="M16 16s-1.5-2-4-2-4 2-4 2"/>
  <line x1="9" x2="9.01" y1="9" y2="9"/>
  <line x1="15" x2="15.01" y1="9" y2="9"/>
</symbol>
    <symbol id="icon-mood-anger" viewBox="0 0 24 24" fill="none" stroke="currentColor" stroke-width="2" stroke-linecap="round" stroke-linejoin="round">
<circle cx="12" cy="12" r="10"/>
  <path d="M7 9l3 2"/>
  <path d="M17 9l-3 2"/>
  <line x1="8" x2="16" y1="15" y2="15"/>
</symbol>
    <symbol id="icon-mood-fear" viewBox="0 0 24 24" fill="none" stroke="currentColor" stroke-width="2" stroke-linecap="round" stroke-linejoin="round">
<circle cx="12" cy="12" r="10"/>
  <path d="M8 8.5c1-1 2.5-1 3.5 0"/>
  <path d="M12.5 8.5c1-1 2.5-1 3.5 0"/>
  <ellipse cx="12" cy="15" rx="1.2" ry="1.5"/>
</symbol>
  </defs>
</svg>
