<!--
  Aerie · 云栖 — Icon Sprite (Phase 7 + Dynamic Island)
  Generated by build-icon-sprite.js
  Source: assets/icons/*.svg
  Style: 24x24 viewBox, stroke-width 2, currentColor, round caps.
  Generated: 2026-07-18 (expanded for Dynamic Island)
-->
<svg xmlns="http://www.w3.org/2000/svg" style="position:absolute; width:0; height:0; overflow:hidden;" aria-hidden="true">
  <defs>
    <!-- UI Icons (existing) -->
    <symbol id="icon-ui-close" viewBox="0 0 24 24" fill="none" stroke="currentColor" stroke-width="2" stroke-linecap="round" stroke-linejoin="round">
      <path d="M18 6 6 18"/>
      <path d="m6 6 12 12"/>
    </symbol>
    <symbol id="icon-ui-attach" viewBox="0 0 24 24" fill="none" stroke="currentColor" stroke-width="2" stroke-linecap="round" stroke-linejoin="round">
      <path d="m21.44 11.05-9.19 9.19a6 6 0 0 1-8.49-8.49l8.57-8.57A4 4 0 1 1 17.93 8.8l-8.57 8.57a2 2 0 0 1-2.83-2.83l8.49-8.48"/>
    </symbol>
    <symbol id="icon-ui-copy" viewBox="0 0 24 24" fill="none" stroke="currentColor" stroke-width="2" stroke-linecap="round" stroke-linejoin="round">
      <rect width="14" height="14" x="8" y="8" rx="2" ry="2"/>
      <path d="M4 16c-1.1 0-2-.9-2-2V4c0-1.1.9-2 2-2h10c1.1 0 2 .9 2 2"/>
    </symbol>
    <symbol id="icon-ui-warning" viewBox="0 0 24 24" fill="none" stroke="currentColor" stroke-width="2" stroke-linecap="round" stroke-linejoin="round">
      <path d="m21.73 18-8-14a2 2 0 0 0-3.48 0l-8 14A2 2 0 0 0 4 21h16a2 2 0 0 0 1.73-3Z"/>
      <path d="M12 9v4"/>
      <path d="M12 17h.01"/>
    </symbol>

    <!-- Mood Icons (existing) -->
    <symbol id="icon-mood-neutral" viewBox="0 0 24 24" fill="none" stroke="currentColor" stroke-width="2" stroke-linecap="round" stroke-linejoin="round">
      <circle cx="12" cy="12" r="10"/>
      <line x1="8" x2="16" y1="15" y2="15"/>
      <line x1="9" x2="9.01" y1="9" y2="9"/>
      <line x1="15" x2="15.01" y1="9" y2="9"/>
    </symbol>
    <symbol id="icon-mood-joy" viewBox="0 0 24 24" fill="none" stroke="currentColor" stroke-width="2" stroke-linecap="round" stroke-linejoin="round">
      <circle cx="12" cy="12" r="10"/>
      <path d="M8 14s1.5 2 4 2 4-2 4-2"/>
      <line x1="9" x2="9.01" y1="9" y2="9"/>
      <line x1="15" x2="15.01" y1="9" y2="9"/>
    </symbol>
    <symbol id="icon-mood-sad" viewBox="0 0 24 24" fill="none" stroke="currentColor" stroke-width="2" stroke-linecap="round" stroke-linejoin="round">
      <circle cx="12" cy="12" r="10"/>
      <path d="M16 16s-1.5-2-4-2-4 2-4 2"/>
      <line x1="9" x2="9.01" y1="9" y2="9"/>
      <line x1="15" x2="15.01" y1="9" y2="9"/>
    </symbol>
    <symbol id="icon-mood-anger" viewBox="0 0 24 24" fill="none" stroke="currentColor" stroke-width="2" stroke-linecap="round" stroke-linejoin="round">
      <circle cx="12" cy="12" r="10"/>
      <path d="M7 9l3 2"/>
      <path d="M17 9l-3 2"/>
      <line x1="8" x2="16" y1="15" y2="15"/>
    </symbol>
    <symbol id="icon-mood-fear" viewBox="0 0 24 24" fill="none" stroke="currentColor" stroke-width="2" stroke-linecap="round" stroke-linejoin="round">
      <circle cx="12" cy="12" r="10"/>
      <path d="M8 8.5c1-1 2.5-1 3.5 0"/>
      <path d="M12.5 8.5c1-1 2.5-1 3.5 0"/>
      <ellipse cx="12" cy="15" rx="1.2" ry="1.5"/>
    </symbol>

    <!-- Dynamic Island: Navigation & Actions -->
    <symbol id="icon-ui-home" viewBox="0 0 24 24" fill="none" stroke="currentColor" stroke-width="2" stroke-linecap="round" stroke-linejoin="round">
      <path d="m3 9 9-7 9 7v11a2 2 0 0 1-2 2H5a2 2 0 0 1-2-2z"/>
      <polyline points="9 22 9 12 15 12 15 22"/>
    </symbol>
    <symbol id="icon-ui-search" viewBox="0 0 24 24" fill="none" stroke="currentColor" stroke-width="2" stroke-linecap="round" stroke-linejoin="round">
      <circle cx="11" cy="11" r="8"/>
      <path d="m21 21-4.3-4.3"/>
    </symbol>
    <symbol id="icon-ui-settings" viewBox="0 0 24 24" fill="none" stroke="currentColor" stroke-width="2" stroke-linecap="round" stroke-linejoin="round">
      <circle cx="12" cy="12" r="3"/>
      <path d="M19.4 15a1.65 1.65 0 0 0 .33 1.82l.06.06a2 2 0 0 1 0 2.83 2 2 0 0 1-2.83 0l-.06-.06a1.65 1.65 0 0 0-1.82-.33 1.65 1.65 0 0 0-1 1.51V21a2 2 0 0 1-2 2 2 2 0 0 1-2-2v-.09A1.65 1.65 0 0 0 9 19.4a1.65 1.65 0 0 0-1.82.33l-.06.06a2 2 0 0 1-2.83 0 2 2 0 0 1 0-2.83l.06-.06a1.65 1.65 0 0 0 .33-1.82 1.65 1.65 0 0 0-1.51-1H3a2 2 0 0 1-2-2 2 2 0 0 1 2-2h.09A1.65 1.65 0 0 0 4.6 9a1.65 1.65 0 0 0-.33-1.82l-.06-.06a2 2 0 0 1 0-2.83 2 2 0 0 1 2.83 0l.06.06a1.65 1.65 0 0 0 1.82.33H9a1.65 1.65 0 0 0 1-1.51V3a2 2 0 0 1 2-2 2 2 0 0 1 2 2v.09a1.65 1.65 0 0 0 1 1.51 1.65 1.65 0 0 0 1.82-.33l.06-.06a2 2 0 0 1 2.83 0 2 2 0 0 1 0 2.83l-.06.06a1.65 1.65 0 0 0-.33 1.82V9a1.65 1.65 0 0 0 1.51 1H21a2 2 0 0 1 2 2 2 2 0 0 1-2 2h-.09a1.65 1.65 0 0 0-1.51 1z"/>
    </symbol>
    <symbol id="icon-ui-user" viewBox="0 0 24 24" fill="none" stroke="currentColor" stroke-width="2" stroke-linecap="round" stroke-linejoin="round">
      <path d="M19 21v-2a4 4 0 0 0-4-4H9a4 4 0 0 0-4 4v2"/>
      <circle cx="12" cy="7" r="4"/>
    </symbol>

    <!-- Dynamic Island: Chat & Notifications -->
    <symbol id="icon-ui-chat" viewBox="0 0 24 24" fill="none" stroke="currentColor" stroke-width="2" stroke-linecap="round" stroke-linejoin="round">
      <path d="M21 15a2 2 0 0 1-2 2H7l-4 4V5a2 2 0 0 1 2-2h14a2 2 0 0 1 2 2z"/>
    </symbol>
    <symbol id="icon-ui-bell" viewBox="0 0 24 24" fill="none" stroke="currentColor" stroke-width="2" stroke-linecap="round" stroke-linejoin="round">
      <path d="M6 8a6 6 0 0 1 12 0c0 7 3 9 3 9H3s3-2 3-9"/>
      <path d="M10.3 21a1.94 1.94 0 0 0 3.4 0"/>
    </symbol>
    <symbol id="icon-ui-message" viewBox="0 0 24 24" fill="none" stroke="currentColor" stroke-width="2" stroke-linecap="round" stroke-linejoin="round">
      <path d="M21 11.5a8.38 8.38 0 0 1-.9 3.8 8.5 8.5 0 0 1-7.6 4.7 8.38 8.38 0 0 1-3.8-.9L3 21l1.9-5.7a8.38 8.38 0 0 1-.9-3.8 8.5 8.5 0 0 1 4.7-7.6 8.38 8.38 0 0 1 3.8-.9h.5a8.48 8.48 0 0 1 8 8v.5z"/>
    </symbol>

    <!-- Dynamic Island: Content & Media -->
    <symbol id="icon-ui-file-text" viewBox="0 0 24 24" fill="none" stroke="currentColor" stroke-width="2" stroke-linecap="round" stroke-linejoin="round">
      <path d="M14 2H6a2 2 0 0 0-2 2v16a2 2 0 0 0 2 2h12a2 2 0 0 0 2-2V8z"/>
      <polyline points="14 2 14 8 20 8"/>
      <line x1="16" x2="8" y1="13" y2="13"/>
      <line x1="16" x2="8" y1="17" y2="17"/>
      <line x1="10" x2="8" y1="9" y2="9"/>
    </symbol>
    <symbol id="icon-ui-brain" viewBox="0 0 24 24" fill="none" stroke="currentColor" stroke-width="2" stroke-linecap="round" stroke-linejoin="round">
      <path d="M9.5 2A2.5 2.5 0 0 1 12 4.5v15a2.5 2.5 0 0 1-4.96.44 2.5 2.5 0 0 1-2.96-3.08 3 3 0 0 1-.34-5.58 2.5 2.5 0 0 1 1.32-4.24 2.5 2.5 0 0 1 4.44-2.04z"/>
      <path d="M14.5 2A2.5 2.5 0 0 0 12 4.5v15a2.5 2.5 0 0 0 4.96.44 2.5 2.5 0 0 0 2.96-3.08 3 3 0 0 0 .34-5.58 2.5 2.5 0 0 0-1.32-4.24 2.5 2.5 0 0 0-4.44-2.04z"/>
    </symbol>
    <symbol id="icon-ui-calendar" viewBox="0 0 24 24" fill="none" stroke="currentColor" stroke-width="2" stroke-linecap="round" stroke-linejoin="round">
      <rect width="18" height="18" x="3" y="4" rx="2" ry="2"/>
      <line x1="16" x2="16" y1="2" y2="6"/>
      <line x1="8" x2="8" y1="2" y2="6"/>
      <line x1="3" x2="21" y1="10" y2="10"/>
    </symbol>
    <symbol id="icon-ui-folder" viewBox="0 0 24 24" fill="none" stroke="currentColor" stroke-width="2" stroke-linecap="round" stroke-linejoin="round">
      <path d="M22 19a2 2 0 0 1-2 2H4a2 2 0 0 1-2-2V5a2 2 0 0 1 2-2h5l2 3h9a2 2 0 0 1 2 2z"/>
    </symbol>
    <symbol id="icon-ui-music" viewBox="0 0 24 24" fill="none" stroke="currentColor" stroke-width="2" stroke-linecap="round" stroke-linejoin="round">
      <path d="M9 18V5l12-2v13"/>
      <circle cx="6" cy="18" r="3"/>
      <circle cx="18" cy="16" r="3"/>
    </symbol>
    <symbol id="icon-ui-play" viewBox="0 0 24 24" fill="none" stroke="currentColor" stroke-width="2" stroke-linecap="round" stroke-linejoin="round">
      <polygon points="5 3 19 12 5 21 5 3"/>
    </symbol>
    <symbol id="icon-ui-pause" viewBox="0 0 24 24" fill="none" stroke="currentColor" stroke-width="2" stroke-linecap="round" stroke-linejoin="round">
      <rect width="4" height="16" x="6" y="4" rx="1" ry="1"/>
      <rect width="4" height="16" x="14" y="4" rx="1" ry="1"/>
    </symbol>
    <symbol id="icon-ui-skip-back" viewBox="0 0 24 24" fill="none" stroke="currentColor" stroke-width="2" stroke-linecap="round" stroke-linejoin="round">
      <polygon points="19 20 9 12 19 4 19 20"/>
      <line x1="5" x2="5" y1="19" y2="5"/>
    </symbol>
    <symbol id="icon-ui-skip-forward" viewBox="0 0 24 24" fill="none" stroke="currentColor" stroke-width="2" stroke-linecap="round" stroke-linejoin="round">
      <polygon points="5 4 15 12 5 20 5 4"/>
      <line x1="19" x2="19" y1="5" y2="19"/>
    </symbol>

    <!-- Dynamic Island: System & Status -->
    <symbol id="icon-ui-cpu" viewBox="0 0 24 24" fill="none" stroke="currentColor" stroke-width="2" stroke-linecap="round" stroke-linejoin="round">
      <rect width="16" height="16" x="4" y="4" rx="2" ry="2"/>
      <rect width="6" height="6" x="9" y="9" rx="1" ry="1"/>
      <line x1="9" x2="9" y1="1" y2="4"/>
      <line x1="15" x2="15" y1="1" y2="4"/>
      <line x1="9" x2="9" y1="20" y2="23"/>
      <line x1="15" x2="15" y1="20" y2="23"/>
      <line x1="20" x2="23" y1="9" y2="9"/>
      <line x1="20" x2="23" y1="14" y2="14"/>
      <line x1="1" x2="4" y1="9" y2="9"/>
      <line x1="1" x2="4" y1="14" y2="14"/>
    </symbol>
    <symbol id="icon-ui-memory" viewBox="0 0 24 24" fill="none" stroke="currentColor" stroke-width="2" stroke-linecap="round" stroke-linejoin="round">
      <rect width="18" height="18" x="3" y="3" rx="2" ry="2"/>
      <path d="M3 9h18"/>
      <path d="M3 15h18"/>
      <path d="M9 3v18"/>
      <path d="M15 3v18"/>
    </symbol>
    <symbol id="icon-ui-wifi" viewBox="0 0 24 24" fill="none" stroke="currentColor" stroke-width="2" stroke-linecap="round" stroke-linejoin="round">
      <path d="M5 12.55a11 11 0 0 1 14.08 0"/>
      <path d="M1.42 9a16 16 0 0 1 21.16 0"/>
      <path d="M8.53 16.11a6 6 0 0 1 6.95 0"/>
      <line x1="12" x2="12.01" y1="20" y2="20"/>
    </symbol>
    <symbol id="icon-ui-activity" viewBox="0 0 24 24" fill="none" stroke="currentColor" stroke-width="2" stroke-linecap="round" stroke-linejoin="round">
      <polyline points="22 12 18 12 15 21 9 3 6 12 2 12"/>
    </symbol>

    <!-- Dynamic Island: Decorative -->
    <symbol id="icon-ui-heart" viewBox="0 0 24 24" fill="none" stroke="currentColor" stroke-width="2" stroke-linecap="round" stroke-linejoin="round">
      <path d="M19 14c1.49-1.46 3-3.21 3-5.5A5.5 5.5 0 0 0 16.5 3c-1.76 0-3 .5-4.5 2-1.5-1.5-2.74-2-4.5-2A5.5 5.5 0 0 0 2 8.5c0 2.3 1.5 4.05 3 5.5l7 7Z"/>
    </symbol>
    <symbol id="icon-ui-star" viewBox="0 0 24 24" fill="none" stroke="currentColor" stroke-width="2" stroke-linecap="round" stroke-linejoin="round">
      <polygon points="12 2 15.09 8.26 22 9.27 17 14.14 18.18 21.02 12 17.77 5.82 21.02 7 14.14 2 9.27 8.91 8.26 12 2"/>
    </symbol>
    <symbol id="icon-ui-sparkles" viewBox="0 0 24 24" fill="none" stroke="currentColor" stroke-width="2" stroke-linecap="round" stroke-linejoin="round">
      <path d="m12 3-1.9 5.8a2 2 0 0 1-1.3 1.3L3 12l5.8 1.9a2 2 0 0 1 1.3 1.3L12 21l1.9-5.8a2 2 0 0 1 1.3-1.3L21 12l-5.8-1.9a2 2 0 0 1-1.3-1.3Z"/>
      <path d="M19 3v4"/>
      <path d="M21 5h-4"/>
    </symbol>
    <symbol id="icon-ui-flower" viewBox="0 0 24 24" fill="none" stroke="currentColor" stroke-width="2" stroke-linecap="round" stroke-linejoin="round">
      <circle cx="12" cy="12" r="3"/>
      <path d="M12 2a3 3 0 0 0-3 3 3 3 0 0 0 3 3 3 3 0 0 0 3-3 3 3 0 0 0-3-3Z"/>
      <path d="M12 16a3 3 0 0 0-3 3 3 3 0 0 0 3 3 3 3 0 0 0 3-3 3 3 0 0 0-3-3Z"/>
      <path d="M2 12a3 3 0 0 0 3 3 3 3 0 0 0 3-3 3 3 0 0 0-3-3 3 3 0 0 0-3 3Z"/>
      <path d="M16 12a3 3 0 0 0 3 3 3 3 0 0 0 3-3 3 3 0 0 0-3-3 3 3 0 0 0-3 3Z"/>
      <path d="M4.93 4.93a3 3 0 0 0 3.53 4.71 3 3 0 0 0 4.71 3.53"/>
      <path d="M19.07 19.07a3 3 0 0 0-3.53-4.71 3 3 0 0 0-4.71-3.53"/>
      <path d="M4.93 19.07a3 3 0 0 1 3.53-4.71 3 3 0 0 1 4.71-3.53"/>
      <path d="M19.07 4.93a3 3 0 0 1-3.53 4.71 3 3 0 0 1-4.71 3.53"/>
    </symbol>

    <!-- Dynamic Island: Companion / Person -->
    <symbol id="icon-ui-companion" viewBox="0 0 24 24" fill="none" stroke="currentColor" stroke-width="2" stroke-linecap="round" stroke-linejoin="round">
      <circle cx="12" cy="8" r="4"/>
      <path d="M4 21a8 8 0 0 1 16 0"/>
    </symbol>
  </defs>
</svg>
