<svg xmlns="http://www.w3.org/2000/svg" width="600" height="400" viewBox="0 0 600 400">
<rect width="100%" height="100%" fill="#fff"/>
<text x="300.0" y="28" text-anchor="middle" font-size="16" font-weight="bold" fill="#333">销售统计</text>
<rect x="75.3" y="166.0" width="71.4" height="174.0" fill="hsl(0.0, 70%, 60%)" rx="3"/>
<text x="111.0" y="161.0" text-anchor="middle" font-size="11" fill="#666">1200.0</text>
<text x="111.0" y="358" text-anchor="middle" font-size="11" fill="#666" transform="rotate(-25 111.0,358)">产品A</text>
<rect x="177.3" y="224.0" width="71.4" height="116.0" fill="hsl(72.0, 70%, 60%)" rx="3"/>
<text x="213.0" y="219.0" text-anchor="middle" font-size="11" fill="#666">800.0</text>
<text x="213.0" y="358" text-anchor="middle" font-size="11" fill="#666" transform="rotate(-25 213.0,358)">产品B</text>
<rect x="279.3" y="122.5" width="71.4" height="217.5" fill="hsl(144.0, 70%, 60%)" rx="3"/>
<text x="315.0" y="117.5" text-anchor="middle" font-size="11" fill="#666">1500.0</text>
<text x="315.0" y="358" text-anchor="middle" font-size="11" fill="#666" transform="rotate(-25 315.0,358)">产品C</text>
<rect x="381.3" y="253.0" width="71.4" height="87.0" fill="hsl(216.0, 70%, 60%)" rx="3"/>
<text x="417.0" y="248.0" text-anchor="middle" font-size="11" fill="#666">600.0</text>
<text x="417.0" y="358" text-anchor="middle" font-size="11" fill="#666" transform="rotate(-25 417.0,358)">产品D</text>
<rect x="483.3" y="50.0" width="71.4" height="290.0" fill="hsl(288.0, 70%, 60%)" rx="3"/>
<text x="519.0" y="45.0" text-anchor="middle" font-size="11" fill="#666">2000.0</text>
<text x="519.0" y="358" text-anchor="middle" font-size="11" fill="#666" transform="rotate(-25 519.0,358)">产品E</text>
<line x1="60" y1="50" x2="60" y2="340" stroke="#ccc"/>
<line x1="60" y1="340" x2="570" y2="340" stroke="#ccc"/>
</svg>